g 
v -50 0 -50
v -38.8888893 0 -50
v -27.7777786 0 -50
v -16.6666679 0 -50
v -5.55555725 0 -50
v 5.55555344 0 -50
v 16.6666641 0 -50
v 27.777771 0 -50
v 38.8888855 0 -50
v 50 0 -50
v -50 0 -38.8888893
v -38.8888893 0 -38.8888893
v -27.7777786 0 -38.8888893
v -16.6666679 0 -38.8888893
v -5.55555725 0 -38.8888893
v 5.55555344 0 -38.8888893
v 16.6666641 0 -38.8888893
v 27.777771 0 -38.8888893
v 38.8888855 0 -38.8888893
v 50 0 -38.8888893
v -50 0 -27.7777786
v -38.8888893 0 -27.7777786
v -27.7777786 0 -27.7777786
v -16.6666679 0 -27.7777786
v -5.55555725 0 -27.7777786
v 5.55555344 0 -27.7777786
v 16.6666641 0 -27.7777786
v 27.777771 0 -27.7777786
v 38.8888855 0 -27.7777786
v 50 0 -27.7777786
v -50 0 -16.6666679
v -38.8888893 0 -16.6666679
v -27.7777786 0 -16.6666679
v -16.6666679 0 -16.6666679
v -5.55555725 0 -16.6666679
v 5.55555344 0 -16.6666679
v 16.6666641 0 -16.6666679
v 27.777771 0 -16.6666679
v 38.8888855 0 -16.6666679
v 50 0 -16.6666679
v -50 0 -5.55555725
v -38.8888893 0 -5.55555725
v -27.7777786 0 -5.55555725
v -16.6666679 0 -5.55555725
v -5.55555725 0 -5.55555725
v 5.55555344 0 -5.55555725
v 16.6666641 0 -5.55555725
v 27.777771 0 -5.55555725
v 38.8888855 0 -5.55555725
v 50 0 -5.55555725
v -50 0 5.55555344
v -38.8888893 0 5.55555344
v -27.7777786 0 5.55555344
v -16.6666679 0 5.55555344
v -5.55555725 0 5.55555344
v 5.55555344 0 5.55555344
v 16.6666641 0 5.55555344
v 27.777771 0 5.55555344
v 38.8888855 0 5.55555344
v 50 0 5.55555344
v -50 0 16.6666641
v -38.8888893 0 16.6666641
v -27.7777786 0 16.6666641
v -16.6666679 0 16.6666641
v -5.55555725 0 16.6666641
v 5.55555344 0 16.6666641
v 16.6666641 0 16.6666641
v 27.777771 0 16.6666641
v 38.8888855 0 16.6666641
v 50 0 16.6666641
v -50 0 27.777771
v -38.8888893 0 27.777771
v -27.7777786 0 27.777771
v -16.6666679 0 27.777771
v -5.55555725 0 27.777771
v 5.55555344 0 27.777771
v 16.6666641 0 27.777771
v 27.777771 0 27.777771
v 38.8888855 0 27.777771
v 50 0 27.777771
v -50 0 38.8888855
v -38.8888893 0 38.8888855
v -27.7777786 0 38.8888855
v -16.6666679 0 38.8888855
v -5.55555725 0 38.8888855
v 5.55555344 0 38.8888855
v 16.6666641 0 38.8888855
v 27.777771 0 38.8888855
v 38.8888855 0 38.8888855
v 50 0 38.8888855
v -50 0 50
v -38.8888893 0 50
v -27.7777786 0 50
v -16.6666679 0 50
v -5.55555725 0 50
v 5.55555344 0 50
v 16.6666641 0 50
v 27.777771 0 50
v 38.8888855 0 50
v 50 0 50
vt 0 0 0.718556941
vt 0.111111104 0 0.718556941
vt 0.222222209 0 0.718556941
vt 0.333333313 0 0.718556941
vt 0.444444418 0 0.718556941
vt 0.555555522 0 0.718556941
vt 0.666666627 0 0.718556941
vt 0.777777672 0 0.718556941
vt 0.888888836 0 0.718556941
vt 1 0 0.718556941
vt 0 0.111111104 0.669988751
vt 0.111111104 0.111111104 0.669988751
vt 0.222222209 0.111111104 0.669988751
vt 0.333333313 0.111111104 0.669988751
vt 0.444444418 0.111111104 0.669988751
vt 0.555555522 0.111111104 0.669988751
vt 0.666666627 0.111111104 0.669988751
vt 0.777777672 0.111111104 0.669988751
vt 0.888888836 0.111111104 0.669988751
vt 1 0.111111104 0.669988751
vt 0 0.222222209 0.621420503
vt 0.111111104 0.222222209 0.621420503
vt 0.222222209 0.222222209 0.621420503
vt 0.333333313 0.222222209 0.621420503
vt 0.444444418 0.222222209 0.621420503
vt 0.555555522 0.222222209 0.621420503
vt 0.666666627 0.222222209 0.621420503
vt 0.777777672 0.222222209 0.621420503
vt 0.888888836 0.222222209 0.621420503
vt 1 0.222222209 0.621420503
vt 0 0.333333313 0.572852314
vt 0.111111104 0.333333313 0.572852314
vt 0.222222209 0.333333313 0.572852314
vt 0.333333313 0.333333313 0.572852314
vt 0.444444418 0.333333313 0.572852314
vt 0.555555522 0.333333313 0.572852314
vt 0.666666627 0.333333313 0.572852314
vt 0.777777672 0.333333313 0.572852314
vt 0.888888836 0.333333313 0.572852314
vt 1 0.333333313 0.572852314
vt 0 0.444444418 0.524284124
vt 0.111111104 0.444444418 0.524284124
vt 0.222222209 0.444444418 0.524284124
vt 0.333333313 0.444444418 0.524284124
vt 0.444444418 0.444444418 0.524284124
vt 0.555555522 0.444444418 0.524284124
vt 0.666666627 0.444444418 0.524284124
vt 0.777777672 0.444444418 0.524284124
vt 0.888888836 0.444444418 0.524284124
vt 1 0.444444418 0.524284124
vt 0 0.555555522 0.475715905
vt 0.111111104 0.555555522 0.475715905
vt 0.222222209 0.555555522 0.475715905
vt 0.333333313 0.555555522 0.475715905
vt 0.444444418 0.555555522 0.475715905
vt 0.555555522 0.555555522 0.475715905
vt 0.666666627 0.555555522 0.475715905
vt 0.777777672 0.555555522 0.475715905
vt 0.888888836 0.555555522 0.475715905
vt 1 0.555555522 0.475715905
vt 0 0.666666627 0.427147686
vt 0.111111104 0.666666627 0.427147686
vt 0.222222209 0.666666627 0.427147686
vt 0.333333313 0.666666627 0.427147686
vt 0.444444418 0.666666627 0.427147686
vt 0.555555522 0.666666627 0.427147686
vt 0.666666627 0.666666627 0.427147686
vt 0.777777672 0.666666627 0.427147686
vt 0.888888836 0.666666627 0.427147686
vt 1 0.666666627 0.427147686
vt 0 0.777777672 0.378579497
vt 0.111111104 0.777777672 0.378579497
vt 0.222222209 0.777777672 0.378579497
vt 0.333333313 0.777777672 0.378579497
vt 0.444444418 0.777777672 0.378579497
vt 0.555555522 0.777777672 0.378579497
vt 0.666666627 0.777777672 0.378579497
vt 0.777777672 0.777777672 0.378579497
vt 0.888888836 0.777777672 0.378579497
vt 1 0.777777672 0.378579497
vt 0 0.888888836 0.330011278
vt 0.111111104 0.888888836 0.330011278
vt 0.222222209 0.888888836 0.330011278
vt 0.333333313 0.888888836 0.330011278
vt 0.444444418 0.888888836 0.330011278
vt 0.555555522 0.888888836 0.330011278
vt 0.666666627 0.888888836 0.330011278
vt 0.777777672 0.888888836 0.330011278
vt 0.888888836 0.888888836 0.330011278
vt 1 0.888888836 0.330011278
vt 0 1 0.281443059
vt 0.111111104 1 0.281443059
vt 0.222222209 1 0.281443059
vt 0.333333313 1 0.281443059
vt 0.444444418 1 0.281443059
vt 0.555555522 1 0.281443059
vt 0.666666627 1 0.281443059
vt 0.777777672 1 0.281443059
vt 0.888888836 1 0.281443059
vt 1 1 0.281443059
vn 0 1 0
vn 0 1 0
vn 0 1 0
vn 0 1 0
vn 0 1 0
vn 0 1 0
vn 0 1 0
vn 0 1 0
vn 0 1 0
vn 0 1 0
vn 0 1 0
vn 0 1 0
vn 0 1 0
vn 0 1 0
vn 0 1 0
vn 0 1 0
vn 0 1 0
vn 0 1 0
vn 0 1 0
vn 0 1 0
vn 0 1 0
vn 0 1 0
vn 0 1 0
vn 0 1 0
vn 0 1 0
vn 0 1 0
vn 0 1 0
vn 0 1 0
vn 0 1 0
vn 0 1 0
vn 0 1 0
vn 0 1 0
vn 0 1 0
vn 0 1 0
vn 0 1 0
vn 0 1 0
vn 0 1 0
vn 0 1 0
vn 0 1 0
vn 0 1 0
vn 0 1 0
vn 0 1 0
vn 0 1 0
vn 0 1 0
vn 0 1 0
vn 0 1 0
vn 0 1 0
vn 0 1 0
vn 0 1 0
vn 0 1 0
vn 0 1 0
vn 0 1 0
vn 0 1 0
vn 0 1 0
vn 0 1 0
vn 0 1 0
vn 0 1 0
vn 0 1 0
vn 0 1 0
vn 0 1 0
vn 0 1 0
vn 0 1 0
vn 0 1 0
vn 0 1 0
vn 0 1 0
vn 0 1 0
vn 0 1 0
vn 0 1 0
vn 0 1 0
vn 0 1 0
vn 0 1 0
vn 0 1 0
vn 0 1 0
vn 0 1 0
vn 0 1 0
vn 0 1 0
vn 0 1 0
vn 0 1 0
vn 0 1 0
vn 0 1 0
vn 0 1 0
vn 0 1 0
vn 0 1 0
vn 0 1 0
vn 0 1 0
vn 0 1 0
vn 0 1 0
vn 0 1 0
vn 0 1 0
vn 0 1 0
vn 0 1 0
vn 0 1 0
vn 0 1 0
vn 0 1 0
vn 0 1 0
vn 0 1 0
vn 0 1 0
vn 0 1 0
vn 0 1 0
vn 0 1 0
g 
f 1/1/1 11/11/11 12/12/12 2/2/2
f 2/2/2 12/12/12 13/13/13 3/3/3
f 3/3/3 13/13/13 14/14/14 4/4/4
f 4/4/4 14/14/14 15/15/15 5/5/5
f 5/5/5 15/15/15 16/16/16 6/6/6
f 6/6/6 16/16/16 17/17/17 7/7/7
f 7/7/7 17/17/17 18/18/18 8/8/8
f 8/8/8 18/18/18 19/19/19 9/9/9
f 9/9/9 19/19/19 20/20/20 10/10/10
f 11/11/11 21/21/21 22/22/22 12/12/12
f 12/12/12 22/22/22 23/23/23 13/13/13
f 13/13/13 23/23/23 24/24/24 14/14/14
f 14/14/14 24/24/24 25/25/25 15/15/15
f 15/15/15 25/25/25 26/26/26 16/16/16
f 16/16/16 26/26/26 27/27/27 17/17/17
f 17/17/17 27/27/27 28/28/28 18/18/18
f 18/18/18 28/28/28 29/29/29 19/19/19
f 19/19/19 29/29/29 30/30/30 20/20/20
f 21/21/21 31/31/31 32/32/32 22/22/22
f 22/22/22 32/32/32 33/33/33 23/23/23
f 23/23/23 33/33/33 34/34/34 24/24/24
f 24/24/24 34/34/34 35/35/35 25/25/25
f 25/25/25 35/35/35 36/36/36 26/26/26
f 26/26/26 36/36/36 37/37/37 27/27/27
f 27/27/27 37/37/37 38/38/38 28/28/28
f 28/28/28 38/38/38 39/39/39 29/29/29
f 29/29/29 39/39/39 40/40/40 30/30/30
f 31/31/31 41/41/41 42/42/42 32/32/32
f 32/32/32 42/42/42 43/43/43 33/33/33
f 33/33/33 43/43/43 44/44/44 34/34/34
f 34/34/34 44/44/44 45/45/45 35/35/35
f 35/35/35 45/45/45 46/46/46 36/36/36
f 36/36/36 46/46/46 47/47/47 37/37/37
f 37/37/37 47/47/47 48/48/48 38/38/38
f 38/38/38 48/48/48 49/49/49 39/39/39
f 39/39/39 49/49/49 50/50/50 40/40/40
f 41/41/41 51/51/51 52/52/52 42/42/42
f 42/42/42 52/52/52 53/53/53 43/43/43
f 43/43/43 53/53/53 54/54/54 44/44/44
f 44/44/44 54/54/54 55/55/55 45/45/45
f 45/45/45 55/55/55 56/56/56 46/46/46
f 46/46/46 56/56/56 57/57/57 47/47/47
f 47/47/47 57/57/57 58/58/58 48/48/48
f 48/48/48 58/58/58 59/59/59 49/49/49
f 49/49/49 59/59/59 60/60/60 50/50/50
f 51/51/51 61/61/61 62/62/62 52/52/52
f 52/52/52 62/62/62 63/63/63 53/53/53
f 53/53/53 63/63/63 64/64/64 54/54/54
f 54/54/54 64/64/64 65/65/65 55/55/55
f 55/55/55 65/65/65 66/66/66 56/56/56
f 56/56/56 66/66/66 67/67/67 57/57/57
f 57/57/57 67/67/67 68/68/68 58/58/58
f 58/58/58 68/68/68 69/69/69 59/59/59
f 59/59/59 69/69/69 70/70/70 60/60/60
f 61/61/61 71/71/71 72/72/72 62/62/62
f 62/62/62 72/72/72 73/73/73 63/63/63
f 63/63/63 73/73/73 74/74/74 64/64/64
f 64/64/64 74/74/74 75/75/75 65/65/65
f 65/65/65 75/75/75 76/76/76 66/66/66
f 66/66/66 76/76/76 77/77/77 67/67/67
f 67/67/67 77/77/77 78/78/78 68/68/68
f 68/68/68 78/78/78 79/79/79 69/69/69
f 69/69/69 79/79/79 80/80/80 70/70/70
f 71/71/71 81/81/81 82/82/82 72/72/72
f 72/72/72 82/82/82 83/83/83 73/73/73
f 73/73/73 83/83/83 84/84/84 74/74/74
f 74/74/74 84/84/84 85/85/85 75/75/75
f 75/75/75 85/85/85 86/86/86 76/76/76
f 76/76/76 86/86/86 87/87/87 77/77/77
f 77/77/77 87/87/87 88/88/88 78/78/78
f 78/78/78 88/88/88 89/89/89 79/79/79
f 79/79/79 89/89/89 90/90/90 80/80/80
f 81/81/81 91/91/91 92/92/92 82/82/82
f 82/82/82 92/92/92 93/93/93 83/83/83
f 83/83/83 93/93/93 94/94/94 84/84/84
f 84/84/84 94/94/94 95/95/95 85/85/85
f 85/85/85 95/95/95 96/96/96 86/86/86
f 86/86/86 96/96/96 97/97/97 87/87/87
f 87/87/87 97/97/97 98/98/98 88/88/88
f 88/88/88 98/98/98 99/99/99 89/89/89
f 89/89/89 99/99/99 100/100/100 90/90/90
